<?xml version="1.0"?>
<svg xmlns="http://www.w3.org/2000/svg" height="512px" viewBox="-48 0 480 480" width="512px"><g><path d="m312 0h-304c-4.417969 0-8 3.582031-8 8v464c0 4.417969 3.582031 8 8 8h368c4.417969 0 8-3.582031 8-8v-400c0-2.121094-.84375-4.15625-2.34375-5.65625l-64-64c-1.5-1.5-3.535156-2.34375-5.65625-2.34375zm8 27.3125 36.6875 36.6875h-36.6875zm-304 436.6875v-448h288v56c0 4.417969 3.582031 8 8 8h56v384zm0 0" data-original="#000000" class="active-path" data-old_color="#000000" fill="#FFFFFF"/><path d="m224 96c0-17.671875-14.328125-32-32-32s-32 14.328125-32 32 14.328125 32 32 32 32-14.328125 32-32zm-32 16c-8.835938 0-16-7.164062-16-16s7.164062-16 16-16 16 7.164062 16 16-7.164062 16-16 16zm0 0" data-original="#000000" class="active-path" data-old_color="#000000" fill="#FFFFFF"/><path d="m192 208c48.601562 0 88-39.398438 88-88s-39.398438-88-88-88-88 39.398438-88 88c.058594 48.578125 39.421875 87.941406 88 88zm-24-20.199219v-35.800781c0-4.417969 3.582031-8 8-8h32c4.417969 0 8 3.582031 8 8v35.800781c-15.511719 5.597657-32.488281 5.597657-48 0zm24-139.800781c31.6875.027344 59.632812 20.769531 68.835938 51.09375 9.199218 30.324219-2.507813 63.097656-28.835938 80.730469v-27.824219c0-13.253906-10.746094-24-24-24h-32c-13.253906 0-24 10.746094-24 24v27.824219c-26.328125-17.632813-38.035156-50.40625-28.835938-80.730469 9.203126-30.324219 37.148438-51.066406 68.835938-51.09375zm0 0" data-original="#000000" class="active-path" data-old_color="#000000" fill="#FFFFFF"/><path d="m40 224h96v16h-96zm0 0" data-original="#000000" class="active-path" data-old_color="#000000" fill="#FFFFFF"/><path d="m152 224h16v16h-16zm0 0" data-original="#000000" class="active-path" data-old_color="#000000" fill="#FFFFFF"/><path d="m72 256h80v16h-80zm0 0" data-original="#000000" class="active-path" data-old_color="#000000" fill="#FFFFFF"/><path d="m72 288h16v16h-16zm0 0" data-original="#000000" class="active-path" data-old_color="#000000" fill="#FFFFFF"/><path d="m104 288h48v16h-48zm0 0" data-original="#000000" class="active-path" data-old_color="#000000" fill="#FFFFFF"/><path d="m40 320h128v16h-128zm0 0" data-original="#000000" class="active-path" data-old_color="#000000" fill="#FFFFFF"/><path d="m184 224h120v16h-120zm0 0" data-original="#000000" class="active-path" data-old_color="#000000" fill="#FFFFFF"/><path d="m168 256h112v16h-112zm0 0" data-original="#000000" class="active-path" data-old_color="#000000" fill="#FFFFFF"/><path d="m168 288h136v16h-136zm0 0" data-original="#000000" class="active-path" data-old_color="#000000" fill="#FFFFFF"/><path d="m184 320h32v16h-32zm0 0" data-original="#000000" class="active-path" data-old_color="#000000" fill="#FFFFFF"/><path d="m232 320h112v16h-112zm0 0" data-original="#000000" class="active-path" data-old_color="#000000" fill="#FFFFFF"/><path d="m72 352h112v16h-112zm0 0" data-original="#000000" class="active-path" data-old_color="#000000" fill="#FFFFFF"/><path d="m200 352h80v16h-80zm0 0" data-original="#000000" class="active-path" data-old_color="#000000" fill="#FFFFFF"/><path d="m168 384h80v16h-80zm0 0" data-original="#000000" class="active-path" data-old_color="#000000" fill="#FFFFFF"/><path d="m72 384h80v16h-80zm0 0" data-original="#000000" class="active-path" data-old_color="#000000" fill="#FFFFFF"/><path d="m64 416h240v16h-240zm0 0" data-original="#000000" class="active-path" data-old_color="#000000" fill="#FFFFFF"/><path d="m264 384h16v16h-16zm0 0" data-original="#000000" class="active-path" data-old_color="#000000" fill="#FFFFFF"/><path d="m48 48h32v-16h-48v64h16zm0 0" data-original="#000000" class="active-path" data-old_color="#000000" fill="#FFFFFF"/></g> </svg>
